<svg width="231" height="38" viewBox="0 0 231 38" fill="none" xmlns="http://www.w3.org/2000/svg">
<path d="M18.7706 0.374268L22.8905 13.0538H36.2225L25.4367 20.8902L29.5565 33.5697L18.7706 25.7333L7.98479 33.5697L12.1046 20.8902L1.31877 13.0538H14.6508L18.7706 0.374268Z" fill="#F1413E"/>
<path d="M67.1073 0.374023L71.2271 13.0535H84.5592L73.7733 20.8899L77.8932 33.5695L67.1073 25.7331L56.3215 33.5695L60.4413 20.8899L49.6554 13.0535H62.9875L67.1073 0.374023Z" fill="#F1413E"/>
<path d="M115.443 0.374023L119.563 13.0535H132.895L122.11 20.8899L126.229 33.5695L115.443 25.7331L104.658 33.5695L108.777 20.8899L97.9916 13.0535H111.324L115.443 0.374023Z" fill="#F1413E"/>
<path d="M163.78 0.374023L167.9 13.0535H181.232L170.446 20.8899L174.566 33.5695L163.78 25.7331L152.994 33.5695L157.114 20.8899L146.328 13.0535H159.66L163.78 0.374023Z" fill="#F1413E"/>
<path d="M212.117 0.374023L216.237 13.0535H229.569L218.783 20.8899L222.903 33.5695L212.117 25.7331L201.331 33.5695L205.451 20.8899L194.665 13.0535H207.997L212.117 0.374023Z" fill="#DCE0DE"/>
<path d="M208.204 13.1273L211.915 0.346924V25.9076L201.196 33.3284L205.318 20.9604L194.599 13.1273H208.204Z" fill="#F1413E"/>
</svg>
