<svg width="18" height="22" viewBox="0 0 18 22" fill="none" xmlns="http://www.w3.org/2000/svg">
<path d="M1.23556 0.09375C0.907866 0.09375 0.593598 0.223924 0.361886 0.455636C0.130175 0.687348 0 1.00162 0 1.32931V19.8627C0 20.1903 0.130175 20.5046 0.361886 20.7363C0.593598 20.968 0.907866 21.0982 1.23556 21.0982C1.56325 21.0982 1.87752 20.968 2.10923 20.7363C2.34094 20.5046 2.47111 20.1903 2.47111 19.8627V1.32931C2.47111 1.00162 2.34094 0.687348 2.10923 0.455636C1.87752 0.223924 1.56325 0.09375 1.23556 0.09375ZM9.88445 1.32931C9.88445 1.00162 9.75428 0.687348 9.52256 0.455636C9.29085 0.223924 8.97659 0.09375 8.6489 0.09375H5.56C5.06847 0.09375 4.59707 0.289012 4.2495 0.636579C3.90193 0.984147 3.70667 1.45555 3.70667 1.94708V7.50709C3.70667 7.99862 3.90193 8.47003 4.2495 8.81759C4.59707 9.16516 5.06847 9.36042 5.56 9.36042H9.88445V1.32931Z" fill="black" fill-opacity="0.6"/>
<path d="M16.7543 4.72728L10.5024 1.57043V9.36061C10.5016 9.4707 10.4714 9.57856 10.4149 9.67306C10.3585 9.76755 10.2777 9.84524 10.1812 9.89808C10.092 9.95248 9.9891 9.98034 9.88464 9.97839H9.48926C9.64848 10.272 9.88409 10.5172 10.1712 10.6879C10.4583 10.8586 10.7862 10.9486 11.1202 10.9483C11.4388 10.949 11.752 10.8659 12.0283 10.7074L16.8285 7.99532C17.1208 7.83043 17.3628 7.58927 17.5288 7.29758C17.6947 7.00588 17.7783 6.6746 17.7707 6.33909C17.7631 6.00357 17.6645 5.67642 17.4855 5.39255C17.3065 5.10868 17.0538 4.87874 16.7543 4.72728Z" fill="black" fill-opacity="0.6"/>
</svg>
