<svg width="163" height="28" viewBox="0 0 163 28" fill="none" xmlns="http://www.w3.org/2000/svg">
<path d="M13.3332 0.136108L16.231 9.49866H25.6084L18.0219 15.285L20.9197 24.6476L13.3332 18.8612L5.7467 24.6476L8.64449 15.285L1.05798 9.49866H10.4354L13.3332 0.136108Z" fill="#F1413E"/>
<path d="M47.3317 0.135986L50.2295 9.49853H59.607L52.0205 15.2849L54.9182 24.6475L47.3317 18.8611L39.7452 24.6475L42.643 15.2849L35.0565 9.49853H44.434L47.3317 0.135986Z" fill="#F1413E"/>
<path d="M81.3303 0.135986L84.2281 9.49853H93.6055L86.019 15.2849L88.9168 24.6475L81.3303 18.8611L73.7438 24.6475L76.6416 15.2849L69.055 9.49853H78.4325L81.3303 0.135986Z" fill="#F1413E"/>
<path d="M115.329 0.135986L118.227 9.49853H127.604L120.018 15.2849L122.916 24.6475L115.329 18.8611L107.743 24.6475L110.64 15.2849L103.054 9.49853H112.431L115.329 0.135986Z" fill="#F1413E"/>
<path d="M149.328 0.135986L152.226 9.49853H161.604L154.017 15.2849L156.915 24.6475L149.328 18.8611L141.742 24.6475L144.64 15.2849L137.053 9.49853H146.431L149.328 0.135986Z" fill="#DCE0DE"/>
<path d="M146.576 9.55283L149.186 0.115845V18.9898L141.647 24.4694L144.546 15.3368L137.007 9.55283H146.576Z" fill="#F1413E"/>
</svg>
