<svg width="210" height="210" viewBox="0 0 210 210" fill="none" xmlns="http://www.w3.org/2000/svg">
<path d="M105 0C77.1618 0.0311265 50.4727 11.1036 30.7882 30.7882C11.1036 50.4727 0.0311265 77.1618 0 105C0.0466427 132.833 11.1241 159.513 30.8053 179.195C50.4865 198.876 77.1666 209.953 105 210C132.848 210 159.555 198.938 179.246 179.246C198.938 159.555 210 132.848 210 105C210 77.1523 198.938 50.4451 179.246 30.7538C159.555 11.0625 132.848 0 105 0ZM168.865 165.589C162.968 153.695 153.865 143.685 142.581 136.69C131.298 129.694 118.284 125.991 105.009 125.998C91.7326 126.005 78.7228 129.721 67.447 136.729C56.1712 143.737 47.0781 153.756 41.1936 165.656C25.4933 149.373 16.7449 127.62 16.8 105C16.8 81.6079 26.0925 59.1739 42.6332 42.6332C59.1739 26.0925 81.6079 16.8 105 16.8C128.392 16.8 150.826 26.0925 167.367 42.6332C183.908 59.1739 193.2 81.6079 193.2 105C193.253 127.588 184.527 149.313 168.865 165.589ZM105 42C97.5239 42 90.2156 44.2169 83.9995 48.3705C77.7833 52.524 72.9383 58.4275 70.0774 65.3346C67.2164 72.2416 66.4678 79.8419 67.9263 87.1744C69.3848 94.5069 72.9849 101.242 78.2714 106.529C83.5578 111.815 90.2931 115.415 97.6256 116.874C104.958 118.332 112.558 117.584 119.465 114.723C126.372 111.862 132.276 107.017 136.43 100.801C140.583 94.5844 142.8 87.2761 142.8 79.8C142.8 74.836 141.822 69.9207 139.923 65.3346C138.023 60.7485 135.239 56.5814 131.729 53.0714C128.219 49.5613 124.052 46.777 119.465 44.8774C114.879 42.9777 109.964 42 105 42Z" fill="#002533" fill-opacity="0.8"/>
</svg>
