<svg width="24" height="24" viewBox="0 0 24 24" fill="none" xmlns="http://www.w3.org/2000/svg">
<path d="M10.5 8.16667H12.8333C13.1428 8.16667 13.4395 8.28958 13.6583 8.50838C13.8771 8.72717 14 9.02391 14 9.33333C14 9.64275 14.1229 9.9395 14.3417 10.1583C14.5605 10.3771 14.8573 10.5 15.1667 10.5C15.4761 10.5 15.7728 10.3771 15.9916 10.1583C16.2104 9.9395 16.3333 9.64275 16.3333 9.33333C16.3333 8.40508 15.9646 7.51484 15.3082 6.85846C14.6518 6.20208 13.7616 5.83333 12.8333 5.83333H10.5C9.57175 5.83333 8.68151 6.20208 8.02513 6.85846C7.36875 7.51484 7 8.40508 7 9.33333V14C7 14.9283 7.36875 15.8185 8.02513 16.4749C8.68151 17.1313 9.57175 17.5 10.5 17.5H12.8333C13.7616 17.5 14.6518 17.1313 15.3082 16.4749C15.9646 15.8185 16.3333 14.9283 16.3333 14C16.3333 13.6906 16.2104 13.3938 15.9916 13.175C15.7728 12.9562 15.4761 12.8333 15.1667 12.8333C14.8573 12.8333 14.5605 12.9562 14.3417 13.175C14.1229 13.3938 14 13.6906 14 14C14 14.3094 13.8771 14.6062 13.6583 14.825C13.4395 15.0437 13.1428 15.1667 12.8333 15.1667H10.5C10.1906 15.1667 9.89384 15.0437 9.67505 14.825C9.45625 14.6062 9.33334 14.3094 9.33334 14V9.33333C9.33334 9.02391 9.45625 8.72717 9.67505 8.50838C9.89384 8.28958 10.1906 8.16667 10.5 8.16667ZM11.6667 0C9.35922 0 7.10359 0.684238 5.18502 1.96619C3.26645 3.24814 1.7711 5.07022 0.888077 7.20203C0.00505498 9.33383 -0.225984 11.6796 0.224177 13.9427C0.674338 16.2058 1.78548 18.2846 3.41709 19.9162C5.04871 21.5479 7.12751 22.659 9.39062 23.1092C11.6537 23.5593 13.9995 23.3283 16.1313 22.4453C18.2631 21.5622 20.0852 20.0669 21.3671 18.1483C22.6491 16.2297 23.3333 13.9741 23.3333 11.6667C23.3333 10.1346 23.0316 8.61749 22.4453 7.20203C21.859 5.78656 20.9996 4.50044 19.9163 3.41709C18.8329 2.33374 17.5468 1.47438 16.1313 0.888072C14.7158 0.301767 13.1988 0 11.6667 0ZM11.6667 21C9.82071 21 8.01621 20.4526 6.48135 19.427C4.94649 18.4015 3.75021 16.9438 3.0438 15.2384C2.33738 13.5329 2.15255 11.6563 2.51268 9.84582C2.8728 8.03533 3.76172 6.37229 5.06701 5.067C6.3723 3.76171 8.03534 2.8728 9.84583 2.51267C11.6563 2.15254 13.5329 2.33737 15.2384 3.04379C16.9438 3.75021 18.4015 4.94649 19.4271 6.48134C20.4526 8.0162 21 9.82071 21 11.6667C21 14.142 20.0167 16.516 18.2663 18.2663C16.516 20.0167 14.142 21 11.6667 21Z" fill="white"/>
</svg>
