<svg width="36" height="26" viewBox="0 0 36 26" fill="none" xmlns="http://www.w3.org/2000/svg">
<path d="M29.6278 11H6.37222C5.61436 11 5 11.8507 5 12.9V13.1C5 14.1493 5.61436 15 6.37222 15H29.6278C30.3856 15 31 14.1493 31 13.1V12.9C31 11.8507 30.3856 11 29.6278 11Z" fill="#002533"/>
<path d="M26.1028 22H10.8972C10.4017 22 10 22.8507 10 23.9V24.1C10 25.1493 10.4017 26 10.8972 26H26.1028C26.5983 26 27 25.1493 27 24.1V23.9C27 22.8507 26.5983 22 26.1028 22Z" fill="#002533"/>
<path d="M34.1 0H1.9C0.850659 0 0 0.850659 0 1.9V2.1C0 3.14934 0.850659 4 1.9 4H34.1C35.1493 4 36 3.14934 36 2.1V1.9C36 0.850659 35.1493 0 34.1 0Z" fill="#002533"/>
</svg>
