<svg width="191" height="31" viewBox="0 0 191 31" fill="none" xmlns="http://www.w3.org/2000/svg">
<path d="M15.1581 0L18.5613 10.474H29.5742L20.6646 16.9472L24.0678 27.4212L15.1581 20.9479L6.24838 27.4212L9.65158 16.9472L0.741889 10.474H11.7549L15.1581 0Z" fill="#F1413E"/>
<path d="M55.0868 0L58.49 10.474H69.503L60.5933 16.9472L63.9965 27.4212L55.0868 20.9479L46.1771 27.4212L49.5803 16.9472L40.6706 10.474H51.6836L55.0868 0Z" fill="#F1413E"/>
<path d="M95.015 0L98.4182 10.474H109.431L100.521 16.9472L103.925 27.4212L95.015 20.9479L86.1053 27.4212L89.5085 16.9472L80.5988 10.474H91.6118L95.015 0Z" fill="#F1413E"/>
<path d="M134.944 0L138.347 10.474H149.36L140.45 16.9472L143.853 27.4212L134.944 20.9479L126.034 27.4212L129.437 16.9472L120.528 10.474H131.541L134.944 0Z" fill="#DCE0DE"/>
<path d="M174.872 0L178.276 10.474H189.289L180.379 16.9472L183.782 27.4212L174.872 20.9479L165.963 27.4212L169.366 16.9472L160.456 10.474H171.469L174.872 0Z" fill="#DCE0DE"/>
</svg>
