<svg width="180" height="48" viewBox="0 0 180 48" fill="none" xmlns="http://www.w3.org/2000/svg">
<circle cx="165.5" cy="14.5" r="14.5" fill="#001E2A"/>
<circle cx="165.5" cy="14.5" r="14.5" fill="url(#paint0_linear_1166_238)"/>
<path d="M14.9362 25.2C16.1562 25.46 17.1362 26.07 17.8762 27.03C18.6162 27.97 18.9862 29.05 18.9862 30.27C18.9862 32.03 18.3662 33.43 17.1262 34.47C15.9062 35.49 14.1962 36 11.9962 36H2.18617V14.94H11.6662C13.8062 14.94 15.4762 15.43 16.6762 16.41C17.8962 17.39 18.5062 18.72 18.5062 20.4C18.5062 21.64 18.1762 22.67 17.5162 23.49C16.8762 24.31 16.0162 24.88 14.9362 25.2ZM7.31617 23.46H10.6762C11.5162 23.46 12.1562 23.28 12.5962 22.92C13.0562 22.54 13.2862 21.99 13.2862 21.27C13.2862 20.55 13.0562 20 12.5962 19.62C12.1562 19.24 11.5162 19.05 10.6762 19.05H7.31617V23.46ZM11.0962 31.86C11.9562 31.86 12.6162 31.67 13.0762 31.29C13.5562 30.89 13.7962 30.32 13.7962 29.58C13.7962 28.84 13.5462 28.26 13.0462 27.84C12.5662 27.42 11.8962 27.21 11.0362 27.21H7.31617V31.86H11.0962ZM24.5416 17.52C23.6416 17.52 22.9016 17.26 22.3216 16.74C21.7616 16.2 21.4816 15.54 21.4816 14.76C21.4816 13.96 21.7616 13.3 22.3216 12.78C22.9016 12.24 23.6416 11.97 24.5416 11.97C25.4216 11.97 26.1416 12.24 26.7016 12.78C27.2816 13.3 27.5716 13.96 27.5716 14.76C27.5716 15.54 27.2816 16.2 26.7016 16.74C26.1416 17.26 25.4216 17.52 24.5416 17.52ZM27.0916 19.26V36H21.9616V19.26H27.0916ZM35.9392 21.63C36.4192 20.85 37.1092 20.22 38.0092 19.74C38.9092 19.26 39.9392 19.02 41.0992 19.02C42.4792 19.02 43.7292 19.37 44.8492 20.07C45.9692 20.77 46.8492 21.77 47.4892 23.07C48.1492 24.37 48.4792 25.88 48.4792 27.6C48.4792 29.32 48.1492 30.84 47.4892 32.16C46.8492 33.46 45.9692 34.47 44.8492 35.19C43.7292 35.89 42.4792 36.24 41.0992 36.24C39.9192 36.24 38.8892 36.01 38.0092 35.55C37.1292 35.07 36.4392 34.44 35.9392 33.66V36H30.8092V13.8H35.9392V21.63ZM43.2592 27.6C43.2592 26.32 42.8992 25.32 42.1792 24.6C41.4792 23.86 40.6092 23.49 39.5692 23.49C38.5492 23.49 37.6792 23.86 36.9592 24.6C36.2592 25.34 35.9092 26.35 35.9092 27.63C35.9092 28.91 36.2592 29.92 36.9592 30.66C37.6792 31.4 38.5492 31.77 39.5692 31.77C40.5892 31.77 41.4592 31.4 42.1792 30.66C42.8992 29.9 43.2592 28.88 43.2592 27.6ZM56.3005 13.8V36H51.1705V13.8H56.3005ZM62.5982 17.52C61.6982 17.52 60.9582 17.26 60.3782 16.74C59.8182 16.2 59.5382 15.54 59.5382 14.76C59.5382 13.96 59.8182 13.3 60.3782 12.78C60.9582 12.24 61.6982 11.97 62.5982 11.97C63.4782 11.97 64.1982 12.24 64.7582 12.78C65.3382 13.3 65.6282 13.96 65.6282 14.76C65.6282 15.54 65.3382 16.2 64.7582 16.74C64.1982 17.26 63.4782 17.52 62.5982 17.52ZM65.1482 19.26V36H60.0182V19.26H65.1482ZM76.4859 36.24C74.8459 36.24 73.3659 35.89 72.0459 35.19C70.7459 34.49 69.7159 33.49 68.9559 32.19C68.2159 30.89 67.8459 29.37 67.8459 27.63C67.8459 25.91 68.2259 24.4 68.9859 23.1C69.7459 21.78 70.7859 20.77 72.1059 20.07C73.4259 19.37 74.9059 19.02 76.5459 19.02C78.1859 19.02 79.6659 19.37 80.9859 20.07C82.3059 20.77 83.3459 21.78 84.1059 23.1C84.8659 24.4 85.2459 25.91 85.2459 27.63C85.2459 29.35 84.8559 30.87 84.0759 32.19C83.3159 33.49 82.2659 34.49 80.9259 35.19C79.6059 35.89 78.1259 36.24 76.4859 36.24ZM76.4859 31.8C77.4659 31.8 78.2959 31.44 78.9759 30.72C79.6759 30 80.0259 28.97 80.0259 27.63C80.0259 26.29 79.6859 25.26 79.0059 24.54C78.3459 23.82 77.5259 23.46 76.5459 23.46C75.5459 23.46 74.7159 23.82 74.0559 24.54C73.3959 25.24 73.0659 26.27 73.0659 27.63C73.0659 28.97 73.3859 30 74.0259 30.72C74.6859 31.44 75.5059 31.8 76.4859 31.8ZM99.4548 19.05V23.31H106.325V27.27H99.4548V31.89H107.225V36H94.3248V14.94H107.225V19.05H99.4548ZM117.365 36.24C115.905 36.24 114.605 35.99 113.465 35.49C112.325 34.99 111.425 34.31 110.765 33.45C110.105 32.57 109.735 31.59 109.655 30.51H114.725C114.785 31.09 115.055 31.56 115.535 31.92C116.015 32.28 116.605 32.46 117.305 32.46C117.945 32.46 118.435 32.34 118.775 32.1C119.135 31.84 119.315 31.51 119.315 31.11C119.315 30.63 119.065 30.28 118.565 30.06C118.065 29.82 117.255 29.56 116.135 29.28C114.935 29 113.935 28.71 113.135 28.41C112.335 28.09 111.645 27.6 111.065 26.94C110.485 26.26 110.195 25.35 110.195 24.21C110.195 23.25 110.455 22.38 110.975 21.6C111.515 20.8 112.295 20.17 113.315 19.71C114.355 19.25 115.585 19.02 117.005 19.02C119.105 19.02 120.755 19.54 121.955 20.58C123.175 21.62 123.875 23 124.055 24.72H119.315C119.235 24.14 118.975 23.68 118.535 23.34C118.115 23 117.555 22.83 116.855 22.83C116.255 22.83 115.795 22.95 115.475 23.19C115.155 23.41 114.995 23.72 114.995 24.12C114.995 24.6 115.245 24.96 115.745 25.2C116.265 25.44 117.065 25.68 118.145 25.92C119.385 26.24 120.395 26.56 121.175 26.88C121.955 27.18 122.635 27.68 123.215 28.38C123.815 29.06 124.125 29.98 124.145 31.14C124.145 32.12 123.865 33 123.305 33.78C122.765 34.54 121.975 35.14 120.935 35.58C119.915 36.02 118.725 36.24 117.365 36.24ZM136.614 31.65V36H134.004C132.144 36 130.694 35.55 129.654 34.65C128.614 33.73 128.094 32.24 128.094 30.18V23.52H126.054V19.26H128.094V15.18H133.224V19.26H136.584V23.52H133.224V30.24C133.224 30.74 133.344 31.1 133.584 31.32C133.824 31.54 134.224 31.65 134.784 31.65H136.614ZM142.051 17.52C141.151 17.52 140.411 17.26 139.831 16.74C139.271 16.2 138.991 15.54 138.991 14.76C138.991 13.96 139.271 13.3 139.831 12.78C140.411 12.24 141.151 11.97 142.051 11.97C142.931 11.97 143.651 12.24 144.211 12.78C144.791 13.3 145.081 13.96 145.081 14.76C145.081 15.54 144.791 16.2 144.211 16.74C143.651 17.26 142.931 17.52 142.051 17.52ZM144.601 19.26V36H139.471V19.26H144.601ZM158.519 19.08C160.479 19.08 162.039 19.72 163.199 21C164.379 22.26 164.969 24 164.969 26.22V36H159.869V26.91C159.869 25.79 159.579 24.92 158.999 24.3C158.419 23.68 157.639 23.37 156.659 23.37C155.679 23.37 154.899 23.68 154.319 24.3C153.739 24.92 153.449 25.79 153.449 26.91V36H148.319V19.26H153.449V21.48C153.969 20.74 154.669 20.16 155.549 19.74C156.429 19.3 157.419 19.08 158.519 19.08Z" fill="#002533"/>
<defs>
<linearGradient id="paint0_linear_1166_238" x1="153.703" y1="17.4492" x2="199.907" y2="9.58475" gradientUnits="userSpaceOnUse">
<stop stop-color="#F1413E"/>
<stop offset="1" stop-color="#F1413E" stop-opacity="0"/>
</linearGradient>
</defs>
</svg>
