<svg width="19" height="25" viewBox="0 0 19 25" fill="none" xmlns="http://www.w3.org/2000/svg">
<path d="M17.6801 8.85005L17.2811 20.9284C17.2471 21.9629 16.8113 22.9434 16.0663 23.6618C15.3212 24.3802 14.3255 24.78 13.2905 24.7763H5.70848C4.67415 24.78 3.67904 24.3808 2.9341 23.6632C2.18915 22.9457 1.75294 21.9662 1.71793 20.9324L1.31888 8.85005C1.31014 8.58546 1.40688 8.32824 1.5878 8.13497C1.76872 7.9417 2.019 7.82822 2.28359 7.81949C2.54818 7.81076 2.8054 7.90749 2.99867 8.08841C3.19194 8.26933 3.30542 8.51962 3.31415 8.78421L3.71321 20.8656C3.73308 21.3813 3.95203 21.8693 4.32409 22.2271C4.69614 22.5848 5.19234 22.7844 5.70848 22.784H13.2905C13.8073 22.7844 14.3041 22.5842 14.6763 22.2256C15.0484 21.867 15.2669 21.3781 15.2858 20.8616L15.6849 8.78421C15.6936 8.51962 15.8071 8.26933 16.0003 8.08841C16.1936 7.90749 16.4508 7.81076 16.7154 7.81949C16.98 7.82822 17.2303 7.9417 17.4112 8.13497C17.5921 8.32824 17.6889 8.58546 17.6801 8.85005ZM19 4.83057C19 5.09516 18.8949 5.34891 18.7078 5.53601C18.5207 5.7231 18.267 5.82821 18.0024 5.82821H0.997637C0.733047 5.82821 0.479294 5.7231 0.292201 5.53601C0.105108 5.34891 0 5.09516 0 4.83057C0 4.56598 0.105108 4.31223 0.292201 4.12513C0.479294 3.93804 0.733047 3.83293 0.997637 3.83293H4.09031C4.40641 3.83378 4.71152 3.717 4.94626 3.5053C5.18101 3.29361 5.3286 3.00215 5.3603 2.68764C5.43392 1.94988 5.77957 1.26594 6.3299 0.769096C6.88023 0.272249 7.59583 -0.00191877 8.33725 1.01089e-05H10.6617C11.4032 -0.00191877 12.1188 0.272249 12.6691 0.769096C13.2194 1.26594 13.5651 1.94988 13.6387 2.68764C13.6704 3.00215 13.818 3.29361 14.0527 3.5053C14.2875 3.717 14.5926 3.83378 14.9087 3.83293H18.0014C18.266 3.83293 18.5197 3.93804 18.7068 4.12513C18.8939 4.31223 18.999 4.56598 18.999 4.83057H19ZM7.0922 3.83293H11.9088C11.7777 3.53338 11.692 3.21598 11.6544 2.89116C11.6297 2.64525 11.5146 2.41727 11.3314 2.25139C11.1482 2.08551 10.9099 1.99353 10.6627 1.99329H8.33825C8.0911 1.99353 7.85284 2.08551 7.66964 2.25139C7.48643 2.41727 7.37131 2.64525 7.3466 2.89116C7.30872 3.21603 7.22364 3.53344 7.0922 3.83293ZM8.09682 18.9481V10.4533C8.09682 10.1887 7.99171 9.93491 7.80462 9.74782C7.61753 9.56072 7.36378 9.45562 7.09919 9.45562C6.8346 9.45562 6.58084 9.56072 6.39375 9.74782C6.20666 9.93491 6.10155 10.1887 6.10155 10.4533V18.9521C6.10155 19.2167 6.20666 19.4705 6.39375 19.6576C6.58084 19.8447 6.8346 19.9498 7.09919 19.9498C7.36378 19.9498 7.61753 19.8447 7.80462 19.6576C7.99171 19.4705 8.09682 19.2167 8.09682 18.9521V18.9481ZM12.8994 18.9481V10.4533C12.8994 10.1887 12.7943 9.93491 12.6072 9.74782C12.4202 9.56072 12.1664 9.45562 11.9018 9.45562C11.6372 9.45562 11.3835 9.56072 11.1964 9.74782C11.0093 9.93491 10.9042 10.1887 10.9042 10.4533V18.9521C10.9042 19.2167 11.0093 19.4705 11.1964 19.6576C11.3835 19.8447 11.6372 19.9498 11.9018 19.9498C12.1664 19.9498 12.4202 19.8447 12.6072 19.6576C12.7943 19.4705 12.8994 19.2167 12.8994 18.9521V18.9481Z" fill="#002533"/>
</svg>
