<svg width="23" height="22" viewBox="0 0 23 22" fill="none" xmlns="http://www.w3.org/2000/svg">
<path d="M21.614 20.4233H0.788354C0.361329 20.4233 0 20.7846 0 21.2116C0 21.6387 0.361329 22 0.788354 22H21.614C22.0411 22 22.4024 21.6387 22.4024 21.2116C22.4024 20.7846 22.0411 20.4233 21.614 20.4233ZM0.0328482 13.5252L0 17.237C0 17.4341 0.0656964 17.6641 0.229937 17.7954C0.394177 17.9268 0.591265 18.0254 0.788354 18.0254L4.50019 17.9925C4.69728 17.9925 4.89436 17.894 5.0586 17.7626L17.8037 5.01754C18.0993 4.72191 18.0993 4.19634 17.8037 3.90071L14.1247 0.221725C13.829 -0.0739082 13.3035 -0.0739082 13.0078 0.221725L10.4457 2.78387L0.262785 12.9668C0.0985446 13.131 0.0328482 13.3281 0.0328482 13.5252ZM16.1284 4.45913L14.6831 5.90444L12.1209 3.34229L13.5663 1.89698L16.1284 4.45913ZM1.60956 13.8537L11.0041 4.45913L13.5663 7.02128L4.17171 16.4158H1.60956V13.8537Z" fill="#002533"/>
</svg>
