<svg width="42" height="9" viewBox="0 0 42 9" fill="none" xmlns="http://www.w3.org/2000/svg">
<path d="M20.9993 8.4C23.3189 8.4 25.1993 6.5196 25.1993 4.2C25.1993 1.8804 23.3189 0 20.9993 0C18.6797 0 16.7993 1.8804 16.7993 4.2C16.7993 6.5196 18.6797 8.4 20.9993 8.4Z" fill="black" fill-opacity="0.6"/>
<path d="M4.2 8.4C6.5196 8.4 8.4 6.5196 8.4 4.2C8.4 1.8804 6.5196 0 4.2 0C1.8804 0 0 1.8804 0 4.2C0 6.5196 1.8804 8.4 4.2 8.4Z" fill="black" fill-opacity="0.6"/>
<path d="M37.7986 8.4C40.1182 8.4 41.9986 6.5196 41.9986 4.2C41.9986 1.8804 40.1182 0 37.7986 0C35.479 0 33.5986 1.8804 33.5986 4.2C33.5986 6.5196 35.479 8.4 37.7986 8.4Z" fill="black" fill-opacity="0.6"/>
</svg>
