<svg width="196" height="32" viewBox="0 0 196 32" fill="none" xmlns="http://www.w3.org/2000/svg">
<path d="M15.6342 0.0232544L19.1443 10.8262H30.5033L21.3137 17.5029L24.8238 28.3059L15.6342 21.6292L6.44466 28.3059L9.95477 17.5029L0.765194 10.8262H12.1241L15.6342 0.0232544Z" fill="#F1413E"/>
<path d="M56.8173 0.0232544L60.3274 10.8262H71.6864L62.4968 17.5029L66.0069 28.3059L56.8173 21.6292L47.6278 28.3059L51.1379 17.5029L41.9483 10.8262H53.3072L56.8173 0.0232544Z" fill="#F1413E"/>
<path d="M97.9995 0.0232544L101.51 10.8262H112.869L103.679 17.5029L107.189 28.3059L97.9995 21.6292L88.8099 28.3059L92.32 17.5029L83.1304 10.8262H94.4894L97.9995 0.0232544Z" fill="#F1413E"/>
<path d="M139.183 0.0232544L142.693 10.8262H154.052L144.862 17.5029L148.372 28.3059L139.183 21.6292L129.993 28.3059L133.503 17.5029L124.314 10.8262H135.672L139.183 0.0232544Z" fill="#F1413E"/>
<path d="M180.366 0.0232544L183.876 10.8262H195.235L186.045 17.5029L189.555 28.3059L180.366 21.6292L171.176 28.3059L174.686 17.5029L165.497 10.8262H176.856L180.366 0.0232544Z" fill="#DCE0DE"/>
<path d="M177.033 10.8889L180.194 6.10352e-05V21.7778L171.061 28.1004L174.574 17.5628L165.441 10.8889H177.033Z" fill="#F1413E"/>
</svg>
