<svg width="48" height="48" viewBox="0 0 48 48" fill="none" xmlns="http://www.w3.org/2000/svg">
<path d="M23.6924 13.5385C18.0857 13.5385 13.5385 18.0857 13.5385 23.6924C13.5385 29.299 18.0857 33.8462 23.6924 33.8462C29.299 33.8462 33.8462 29.299 33.8462 23.6924C33.8462 18.0857 29.299 13.5385 23.6924 13.5385ZM24.5091 32.0362C24.4649 32.0362 24.4208 32.0362 24.3546 32.0582V27.2683C25.5024 27.2462 26.5399 27.2241 27.489 27.1579C26.6502 29.7405 25.083 31.4623 24.5091 32.0362ZM22.8756 32.0362C22.2797 31.4402 20.7345 29.7184 19.8957 27.1579C20.8228 27.2241 21.8823 27.2683 23.0302 27.2683V32.0582C22.986 32.0582 22.9419 32.0362 22.8756 32.0362ZM15.3044 23.6924C15.3044 23.1405 15.3706 22.5887 15.4589 22.0589C15.9445 21.9706 16.8716 21.8382 18.174 21.7057C18.0636 22.3459 17.9974 23.0081 17.9974 23.7144C17.9974 24.4208 18.0636 25.083 18.1519 25.7011C16.8716 25.5686 15.9225 25.4362 15.4368 25.3479C15.3706 24.796 15.3044 24.2442 15.3044 23.6924ZM19.3439 23.6924C19.3439 22.9419 19.4322 22.2355 19.5646 21.5733C20.58 21.5071 21.7278 21.4409 23.0302 21.4409V25.9439C21.7499 25.9218 20.58 25.8776 19.5425 25.7894C19.4322 25.1492 19.3439 24.4429 19.3439 23.6924ZM24.487 15.3485C25.083 15.9445 26.6061 17.7104 27.4669 20.2268C26.5399 20.1606 25.5024 20.1164 24.3546 20.1164V15.3265C24.3987 15.3265 24.4429 15.3485 24.487 15.3485ZM23.0302 15.3265V20.1164C21.8823 20.1385 20.8449 20.1606 19.9178 20.2268C20.7566 17.7104 22.3017 15.9445 22.8756 15.3485C22.9419 15.3485 22.986 15.3265 23.0302 15.3265ZM24.3546 25.9439V21.4409C25.6348 21.4629 26.8047 21.5071 27.8201 21.5733C27.9526 22.2355 28.0409 22.9419 28.0409 23.6924C28.0409 24.4429 27.9746 25.1492 27.8422 25.8114C26.8268 25.8776 25.6569 25.9218 24.3546 25.9439ZM29.1887 21.7057C30.491 21.8382 31.4181 21.9706 31.9037 22.0589C32.0141 22.5887 32.0803 23.1405 32.0803 23.6924C32.0803 24.2442 32.0141 24.796 31.9258 25.3258C31.4402 25.4141 30.5131 25.5465 29.2108 25.679C29.3211 25.0388 29.3653 24.3766 29.3653 23.6703C29.3653 23.0081 29.2991 22.3238 29.1887 21.7057ZM31.5064 20.6462C30.8883 20.5579 30.0054 20.4475 28.8797 20.3372C28.3499 18.4388 27.4228 16.9158 26.6502 15.8342C28.8797 16.673 30.6455 18.4388 31.5064 20.6462ZM20.7345 15.8342C19.9399 16.8937 19.0348 18.4168 18.5051 20.3151C17.4014 20.4034 16.5184 20.5358 15.8783 20.6241C16.7392 18.4388 18.5271 16.673 20.7345 15.8342ZM15.8783 26.7385C16.4964 26.8268 17.3793 26.9372 18.483 27.0475C19.0128 28.9459 19.8957 30.4689 20.6904 31.5285C18.483 30.6676 16.7392 28.9238 15.8783 26.7385ZM26.6944 31.5285C27.489 30.4689 28.372 28.9679 28.9017 27.0696C30.0054 26.9813 30.8883 26.8489 31.5064 26.7606C30.6455 28.9238 28.9017 30.6676 26.6944 31.5285Z" fill="#EAF2EF"/>
<circle cx="24" cy="24" r="23" stroke="#EAF2EF" stroke-width="2"/>
</svg>
