<svg width="48" height="48" viewBox="0 0 48 48" fill="none" xmlns="http://www.w3.org/2000/svg">
<circle cx="24" cy="24" r="23" stroke="#EAF2EF" stroke-width="2"/>
<path d="M15.7543 13.5385C15.2206 13.5373 14.6918 13.6415 14.1984 13.8452C13.7051 14.0489 13.2568 14.3481 12.8794 14.7255C12.5019 15.1029 12.2028 15.5512 11.9991 16.0446C11.7954 16.538 11.6911 17.0667 11.6923 17.6005V29.7849C11.6912 30.3186 11.7955 30.8473 11.9993 31.3406C12.203 31.8339 12.5022 32.2821 12.8796 32.6594C13.2571 33.0368 13.7053 33.3359 14.1986 33.5395C14.6919 33.7432 15.2206 33.8474 15.7543 33.8462H32.0008C32.5345 33.8474 33.0632 33.7432 33.5565 33.5395C34.0498 33.3359 34.4981 33.0368 34.8755 32.6594C35.2529 32.2821 35.5521 31.8339 35.7558 31.3406C35.9596 30.8473 36.0639 30.3186 36.0628 29.7849V17.6005C36.064 17.0667 35.9597 16.538 35.756 16.0446C35.5523 15.5512 35.2532 15.1029 34.8757 14.7255C34.4983 14.3481 34.05 14.0489 33.5567 13.8452C33.0633 13.6415 32.5345 13.5373 32.0008 13.5385H15.7543ZM21.6524 19.4565C22.6763 19.5133 24.2583 20.3576 24.9537 20.723C25.8095 21.1735 28.0263 22.3203 28.0317 23.2306C28.0386 24.141 25.8379 25.3138 24.989 25.7736C24.1393 26.2341 21.9571 27.4346 21.1005 26.9848C20.2446 26.5343 20.2462 24.1863 20.24 23.2767C20.2339 22.3663 20.2001 20.0183 21.0498 19.5578C21.2087 19.4718 21.416 19.4427 21.6524 19.4565Z" fill="#EAF2EF"/>
</svg>
