<svg width="356" height="101" viewBox="0 0 356 101" fill="none" xmlns="http://www.w3.org/2000/svg">
<circle cx="326.5" cy="29.5" r="29.5" fill="#001E2A"/>
<circle cx="326.5" cy="29.5" r="29.5" fill="url(#paint0_linear_1176_333)"/>
<g filter="url(#filter0_d_1176_333)">
<path d="M30.3723 55.4C32.8123 55.92 34.7723 57.14 36.2523 59.06C37.7323 60.94 38.4723 63.1 38.4723 65.54C38.4723 69.06 37.2323 71.86 34.7523 73.94C32.3123 75.98 28.8923 77 24.4923 77H4.87234V34.88H23.8323C28.1123 34.88 31.4523 35.86 33.8523 37.82C36.2923 39.78 37.5123 42.44 37.5123 45.8C37.5123 48.28 36.8523 50.34 35.5323 51.98C34.2523 53.62 32.5323 54.76 30.3723 55.4ZM15.1323 51.92H21.8523C23.5323 51.92 24.8123 51.56 25.6923 50.84C26.6123 50.08 27.0723 48.98 27.0723 47.54C27.0723 46.1 26.6123 45 25.6923 44.24C24.8123 43.48 23.5323 43.1 21.8523 43.1H15.1323V51.92ZM22.6923 68.72C24.4123 68.72 25.7323 68.34 26.6523 67.58C27.6123 66.78 28.0923 65.64 28.0923 64.16C28.0923 62.68 27.5923 61.52 26.5923 60.68C25.6323 59.84 24.2923 59.42 22.5723 59.42H15.1323V68.72H22.6923ZM49.5831 40.04C47.7831 40.04 46.3031 39.52 45.1431 38.48C44.0231 37.4 43.4631 36.08 43.4631 34.52C43.4631 32.92 44.0231 31.6 45.1431 30.56C46.3031 29.48 47.7831 28.94 49.5831 28.94C51.3431 28.94 52.7831 29.48 53.9031 30.56C55.0631 31.6 55.6431 32.92 55.6431 34.52C55.6431 36.08 55.0631 37.4 53.9031 38.48C52.7831 39.52 51.3431 40.04 49.5831 40.04ZM54.6831 43.52V77H44.4231V43.52H54.6831ZM72.3784 48.26C73.3384 46.7 74.7184 45.44 76.5184 44.48C78.3184 43.52 80.3784 43.04 82.6984 43.04C85.4584 43.04 87.9584 43.74 90.1984 45.14C92.4384 46.54 94.1984 48.54 95.4784 51.14C96.7984 53.74 97.4584 56.76 97.4584 60.2C97.4584 63.64 96.7984 66.68 95.4784 69.32C94.1984 71.92 92.4384 73.94 90.1984 75.38C87.9584 76.78 85.4584 77.48 82.6984 77.48C80.3384 77.48 78.2784 77.02 76.5184 76.1C74.7584 75.14 73.3784 73.88 72.3784 72.32V77H62.1184V32.6H72.3784V48.26ZM87.0184 60.2C87.0184 57.64 86.2984 55.64 84.8584 54.2C83.4584 52.72 81.7184 51.98 79.6384 51.98C77.5984 51.98 75.8584 52.72 74.4184 54.2C73.0184 55.68 72.3184 57.7 72.3184 60.26C72.3184 62.82 73.0184 64.84 74.4184 66.32C75.8584 67.8 77.5984 68.54 79.6384 68.54C81.6784 68.54 83.4184 67.8 84.8584 66.32C86.2984 64.8 87.0184 62.76 87.0184 60.2ZM113.101 32.6V77H102.841V32.6H113.101ZM125.696 40.04C123.896 40.04 122.416 39.52 121.256 38.48C120.136 37.4 119.576 36.08 119.576 34.52C119.576 32.92 120.136 31.6 121.256 30.56C122.416 29.48 123.896 28.94 125.696 28.94C127.456 28.94 128.896 29.48 130.016 30.56C131.176 31.6 131.756 32.92 131.756 34.52C131.756 36.08 131.176 37.4 130.016 38.48C128.896 39.52 127.456 40.04 125.696 40.04ZM130.796 43.52V77H120.536V43.52H130.796ZM153.472 77.48C150.192 77.48 147.232 76.78 144.592 75.38C141.992 73.98 139.932 71.98 138.412 69.38C136.932 66.78 136.192 63.74 136.192 60.26C136.192 56.82 136.952 53.8 138.472 51.2C139.992 48.56 142.072 46.54 144.712 45.14C147.352 43.74 150.312 43.04 153.592 43.04C156.872 43.04 159.832 43.74 162.472 45.14C165.112 46.54 167.192 48.56 168.712 51.2C170.232 53.8 170.992 56.82 170.992 60.26C170.992 63.7 170.212 66.74 168.652 69.38C167.132 71.98 165.032 73.98 162.352 75.38C159.712 76.78 156.752 77.48 153.472 77.48ZM153.472 68.6C155.432 68.6 157.092 67.88 158.452 66.44C159.852 65 160.552 62.94 160.552 60.26C160.552 57.58 159.872 55.52 158.512 54.08C157.192 52.64 155.552 51.92 153.592 51.92C151.592 51.92 149.932 52.64 148.612 54.08C147.292 55.48 146.632 57.54 146.632 60.26C146.632 62.94 147.272 65 148.552 66.44C149.872 67.88 151.512 68.6 153.472 68.6ZM199.41 43.1V51.62H213.15V59.54H199.41V68.78H214.95V77H189.15V34.88H214.95V43.1H199.41ZM235.231 77.48C232.311 77.48 229.711 76.98 227.431 75.98C225.151 74.98 223.351 73.62 222.031 71.9C220.711 70.14 219.971 68.18 219.811 66.02H229.951C230.071 67.18 230.611 68.12 231.571 68.84C232.531 69.56 233.711 69.92 235.111 69.92C236.391 69.92 237.371 69.68 238.051 69.2C238.771 68.68 239.131 68.02 239.131 67.22C239.131 66.26 238.631 65.56 237.631 65.12C236.631 64.64 235.011 64.12 232.771 63.56C230.371 63 228.371 62.42 226.771 61.82C225.171 61.18 223.791 60.2 222.631 58.88C221.471 57.52 220.891 55.7 220.891 53.42C220.891 51.5 221.411 49.76 222.451 48.2C223.531 46.6 225.091 45.34 227.131 44.42C229.211 43.5 231.671 43.04 234.511 43.04C238.711 43.04 242.011 44.08 244.411 46.16C246.851 48.24 248.251 51 248.611 54.44H239.131C238.971 53.28 238.451 52.36 237.571 51.68C236.731 51 235.611 50.66 234.211 50.66C233.011 50.66 232.091 50.9 231.451 51.38C230.811 51.82 230.491 52.44 230.491 53.24C230.491 54.2 230.991 54.92 231.991 55.4C233.031 55.88 234.631 56.36 236.791 56.84C239.271 57.48 241.291 58.12 242.851 58.76C244.411 59.36 245.771 60.36 246.931 61.76C248.131 63.12 248.751 64.96 248.791 67.28C248.791 69.24 248.231 71 247.111 72.56C246.031 74.08 244.451 75.28 242.371 76.16C240.331 77.04 237.951 77.48 235.231 77.48ZM273.728 68.3V77H268.508C264.788 77 261.888 76.1 259.808 74.3C257.728 72.46 256.688 69.48 256.688 65.36V52.04H252.608V43.52H256.688V35.36H266.948V43.52H273.668V52.04H266.948V65.48C266.948 66.48 267.188 67.2 267.668 67.64C268.148 68.08 268.948 68.3 270.068 68.3H273.728ZM284.603 40.04C282.803 40.04 281.323 39.52 280.163 38.48C279.043 37.4 278.483 36.08 278.483 34.52C278.483 32.92 279.043 31.6 280.163 30.56C281.323 29.48 282.803 28.94 284.603 28.94C286.363 28.94 287.803 29.48 288.923 30.56C290.083 31.6 290.663 32.92 290.663 34.52C290.663 36.08 290.083 37.4 288.923 38.48C287.803 39.52 286.363 40.04 284.603 40.04ZM289.703 43.52V77H279.443V43.52H289.703ZM317.538 43.16C321.458 43.16 324.578 44.44 326.898 47C329.258 49.52 330.438 53 330.438 57.44V77H320.238V58.82C320.238 56.58 319.658 54.84 318.498 53.6C317.338 52.36 315.778 51.74 313.818 51.74C311.858 51.74 310.298 52.36 309.138 53.6C307.978 54.84 307.398 56.58 307.398 58.82V77H297.138V43.52H307.398V47.96C308.438 46.48 309.838 45.32 311.598 44.48C313.358 43.6 315.338 43.16 317.538 43.16Z" fill="#EAF2EF"/>
</g>
<defs>
<filter id="filter0_d_1176_333" x="0.872559" y="28.9399" width="333.565" height="56.54" filterUnits="userSpaceOnUse" color-interpolation-filters="sRGB">
<feFlood flood-opacity="0" result="BackgroundImageFix"/>
<feColorMatrix in="SourceAlpha" type="matrix" values="0 0 0 0 0 0 0 0 0 0 0 0 0 0 0 0 0 0 127 0" result="hardAlpha"/>
<feOffset dy="4"/>
<feGaussianBlur stdDeviation="2"/>
<feComposite in2="hardAlpha" operator="out"/>
<feColorMatrix type="matrix" values="0 0 0 0 0 0 0 0 0 0 0 0 0 0 0 0 0 0 0.25 0"/>
<feBlend mode="normal" in2="BackgroundImageFix" result="effect1_dropShadow_1176_333"/>
<feBlend mode="normal" in="SourceGraphic" in2="effect1_dropShadow_1176_333" result="shape"/>
</filter>
<linearGradient id="paint0_linear_1176_333" x1="302.5" y1="35.5" x2="396.5" y2="19.5" gradientUnits="userSpaceOnUse">
<stop stop-color="#F1413E"/>
<stop offset="1" stop-color="#F1413E" stop-opacity="0"/>
</linearGradient>
</defs>
</svg>
