<svg width="48" height="48" viewBox="0 0 48 48" fill="none" xmlns="http://www.w3.org/2000/svg">
<circle cx="24" cy="24" r="23" stroke="#EAF2EF" stroke-width="2"/>
<path d="M20.9235 23.6923C20.9235 21.8231 22.4384 20.3074 24.3076 20.3074C26.1768 20.3074 27.6925 21.8231 27.6925 23.6923C27.6925 25.5615 26.1768 27.0772 24.3076 27.0772C22.4384 27.0772 20.9235 25.5615 20.9235 23.6923ZM19.0937 23.6923C19.0937 26.572 21.4279 28.9062 24.3076 28.9062C27.1872 28.9062 29.5215 26.572 29.5215 23.6923C29.5215 20.8127 27.1872 18.4784 24.3076 18.4784C21.4279 18.4784 19.0937 20.8127 19.0937 23.6923ZM28.5094 18.2717C28.5094 18.9443 29.0548 19.4905 29.7282 19.4905C30.4007 19.4905 30.947 18.9443 30.947 18.2717C30.947 17.5992 30.4015 17.0538 29.7282 17.0538C29.0548 17.0538 28.5094 17.5992 28.5094 18.2717ZM20.205 31.9573C19.2151 31.9122 18.677 31.7473 18.3194 31.6079C17.8454 31.4234 17.5075 31.2035 17.1515 30.8484C16.7964 30.4933 16.5757 30.1554 16.392 29.6813C16.2526 29.3237 16.0877 28.7857 16.0426 27.7957C15.9934 26.7254 15.9836 26.4038 15.9836 23.6923C15.9836 20.9808 15.9942 20.6601 16.0426 19.589C16.0877 18.599 16.2534 18.0618 16.392 17.7034C16.5766 17.2293 16.7964 16.8914 17.1515 16.5354C17.5066 16.1803 17.8446 15.9597 18.3194 15.7759C18.677 15.6365 19.2151 15.4717 20.205 15.4265C21.2754 15.3773 21.5969 15.3675 24.3076 15.3675C27.0191 15.3675 27.3398 15.3781 28.411 15.4265C29.4009 15.4717 29.9381 15.6373 30.2965 15.7759C30.7706 15.9597 31.1085 16.1803 31.4645 16.5354C31.8196 16.8906 32.0394 17.2293 32.224 17.7034C32.3634 18.061 32.5283 18.599 32.5734 19.589C32.6226 20.6601 32.6324 20.9808 32.6324 23.6923C32.6324 26.403 32.6226 26.7245 32.5734 27.7957C32.5283 28.7857 32.3626 29.3237 32.224 29.6813C32.0394 30.1554 31.8196 30.4933 31.4645 30.8484C31.1094 31.2035 30.7706 31.4234 30.2965 31.6079C29.9389 31.7473 29.4009 31.9122 28.411 31.9573C27.3406 32.0065 27.0191 32.0163 24.3076 32.0163C21.5969 32.0163 21.2754 32.0065 20.205 31.9573ZM20.1214 13.6C19.0404 13.6492 18.3022 13.8206 17.6567 14.0716C16.9891 14.3308 16.4232 14.6785 15.8581 15.2428C15.2938 15.8071 14.946 16.373 14.6869 17.0415C14.4359 17.687 14.2645 18.4251 14.2152 19.5061C14.1652 20.5888 14.1537 20.9349 14.1537 23.6923C14.1537 26.4498 14.1652 26.7959 14.2152 27.8785C14.2645 28.9595 14.4359 29.6977 14.6869 30.3432C14.946 31.0108 15.293 31.5776 15.8581 32.1418C16.4224 32.7061 16.9883 33.0531 17.6567 33.3131C18.303 33.564 19.0404 33.7354 20.1214 33.7847C21.2048 33.8339 21.5501 33.8462 24.3076 33.8462C27.0659 33.8462 27.4111 33.8347 28.4938 33.7847C29.5748 33.7354 30.313 33.564 30.9584 33.3131C31.6261 33.0531 32.192 32.7061 32.7571 32.1418C33.3214 31.5776 33.6683 31.0108 33.9283 30.3432C34.1793 29.6977 34.3515 28.9595 34.3999 27.8785C34.4491 26.7951 34.4606 26.4498 34.4606 23.6923C34.4606 20.9349 34.4491 20.5888 34.3999 19.5061C34.3507 18.4251 34.1793 17.687 33.9283 17.0415C33.6683 16.3738 33.3214 15.8079 32.7571 15.2428C32.1928 14.6785 31.6261 14.3308 30.9593 14.0716C30.313 13.8206 29.5748 13.6484 28.4946 13.6C27.412 13.5508 27.0659 13.5385 24.3084 13.5385C21.5501 13.5385 21.2048 13.55 20.1214 13.6Z" fill="#EAF2EF"/>
</svg>
