<svg width="26" height="26" viewBox="0 0 26 26" fill="none" xmlns="http://www.w3.org/2000/svg">
<path d="M25.5729 23.5224L20.6633 18.6273C22.2474 16.6093 23.1069 14.1173 23.1037 11.5518C23.1037 9.2671 22.4262 7.03367 21.1568 5.13398C19.8875 3.23429 18.0834 1.75367 15.9725 0.879336C13.8617 0.00500519 11.539 -0.22376 9.29819 0.22197C7.05735 0.6677 4.99901 1.76791 3.38346 3.38346C1.76791 4.99901 0.6677 7.05735 0.22197 9.29819C-0.22376 11.539 0.00500519 13.8617 0.879336 15.9725C1.75367 18.0834 3.23429 19.8875 5.13398 21.1568C7.03367 22.4262 9.2671 23.1037 11.5518 23.1037C14.1173 23.1069 16.6093 22.2474 18.6273 20.6633L23.5224 25.5729C23.6567 25.7082 23.8164 25.8156 23.9923 25.889C24.1683 25.9623 24.357 26 24.5476 26C24.7383 26 24.927 25.9623 25.103 25.889C25.2789 25.8156 25.4386 25.7082 25.5729 25.5729C25.7082 25.4386 25.8156 25.2789 25.889 25.103C25.9623 24.927 26 24.7383 26 24.5476C26 24.357 25.9623 24.1683 25.889 23.9923C25.8156 23.8164 25.7082 23.6567 25.5729 23.5224ZM2.88796 11.5518C2.88796 9.83829 3.39609 8.16321 4.34809 6.73845C5.30009 5.31368 6.6532 4.20321 8.23632 3.54746C9.81943 2.89171 11.5614 2.72014 13.2421 3.05444C14.9227 3.38873 16.4665 4.21389 17.6781 5.42555C18.8898 6.63722 19.7149 8.18097 20.0492 9.8616C20.3835 11.5422 20.212 13.2842 19.5562 14.8674C18.9005 16.4505 17.79 17.8036 16.3652 18.7556C14.9405 19.7076 13.2654 20.2157 11.5518 20.2157C9.25403 20.2157 7.05034 19.3029 5.42555 17.6781C3.80076 16.0533 2.88796 13.8496 2.88796 11.5518Z" fill="#EAF2EF"/>
</svg>
