<svg width="101" height="106" viewBox="0 0 101 106" fill="none" xmlns="http://www.w3.org/2000/svg">
<path d="M50.5 0C37.1112 0.0157115 24.275 5.60467 14.8076 15.5407C5.3403 25.4767 0.0149704 38.9483 0 53C0.0224329 67.0492 5.35016 80.5163 14.8159 90.4506C24.2816 100.385 37.1135 105.976 50.5 106C63.8934 106 76.7383 100.416 86.2089 90.4767C95.6795 80.5372 101 67.0565 101 53C101 38.9435 95.6795 25.4628 86.2089 15.5233C76.7383 5.58391 63.8934 0 50.5 0ZM81.2161 83.5831C78.38 77.5793 74.0015 72.5268 68.5748 68.9957C63.1482 65.4645 56.8892 63.5952 50.5041 63.5988C44.119 63.6023 37.8619 65.4785 32.4388 69.0156C27.0157 72.5527 22.6423 77.6101 19.8122 83.617C12.2611 75.3978 8.0535 64.4175 8.08 53C8.08 41.1926 12.5492 29.8687 20.5045 21.5196C28.4598 13.1705 39.2495 8.48 50.5 8.48C61.7505 8.48 72.5402 13.1705 80.4955 21.5196C88.4508 29.8687 92.92 41.1926 92.92 53C92.9453 64.4015 88.7487 75.3674 81.2161 83.5831ZM50.5 21.2C46.9043 21.2 43.3894 22.319 40.3997 24.4156C37.41 26.5121 35.0799 29.492 33.7039 32.9784C32.3279 36.4648 31.9678 40.3012 32.6693 44.0023C33.3708 47.7035 35.1023 51.1032 37.6448 53.7716C40.1873 56.44 43.4267 58.2572 46.9533 58.9934C50.4798 59.7296 54.1352 59.3517 57.4572 57.9076C60.7791 56.4635 63.6185 54.018 65.6161 50.8803C67.6138 47.7426 68.68 44.0537 68.68 40.28C68.68 37.7744 68.2098 35.2933 67.2961 32.9784C66.3825 30.6635 65.0434 28.5601 63.3552 26.7884C61.667 25.0167 59.6629 23.6112 57.4572 22.6524C55.2515 21.6935 52.8874 21.2 50.5 21.2Z" fill="#002533" fill-opacity="0.8"/>
</svg>
