<svg width="86" height="38" viewBox="0 0 86 38" fill="none" xmlns="http://www.w3.org/2000/svg">
<g opacity="0.67">
<path d="M34.9032 10.4683L20.8689 9.80179" stroke="white" stroke-width="2" stroke-miterlimit="10"/>
<path d="M34.9032 12.863L20.8689 12.1956M34.9032 15.2976L20.8689 14.6302" stroke="white" stroke-width="2" stroke-miterlimit="10"/>
<path d="M34.9032 17.6523L20.8689 16.9848" stroke="white" stroke-width="2" stroke-miterlimit="10"/>
<path d="M34.9032 20.0469L20.8689 19.3795" stroke="white" stroke-width="2" stroke-miterlimit="10"/>
<path d="M34.9554 22.3971L20.9211 21.7297" stroke="white" stroke-width="2" stroke-miterlimit="10"/>
</g>
<g opacity="0.67">
<path d="M52.6377 10.4683L66.672 9.80179" stroke="white" stroke-width="2" stroke-miterlimit="10"/>
<path d="M52.6377 12.863L66.672 12.1956" stroke="white" stroke-width="2" stroke-miterlimit="10"/>
<path d="M52.6377 15.2577L66.672 14.5902" stroke="white" stroke-width="2" stroke-miterlimit="10"/>
<path d="M52.6377 17.6523L66.672 16.9848" stroke="white" stroke-width="2" stroke-miterlimit="10"/>
<path d="M52.6377 20.0469L66.672 19.3795" stroke="white" stroke-width="2" stroke-miterlimit="10"/>
<path d="M52.6035 22.25L66.6378 21.5826" stroke="white" stroke-width="2" stroke-miterlimit="10"/>
</g>
<g opacity="0.67">
<path d="M4.46143 4.40327V37.1047" stroke="white" stroke-width="2" stroke-miterlimit="10"/>
<path d="M50.3246 1H37.24V23.8614H50.3246V1Z" stroke="white" stroke-width="2" stroke-miterlimit="10"/>
<path d="M16.3005 36.0767V27.9009L18.8946 27.5641V35.9621" stroke="white" stroke-width="2" stroke-miterlimit="10"/>
<path d="M80.6836 9.75151H76.9531V25.7945H80.6836V9.75151Z" stroke="white" stroke-width="2" stroke-miterlimit="10"/>
<path d="M68.3586 36.015V27.9009L71.115 28.2254V36.1658" stroke="white" stroke-width="2" stroke-miterlimit="10"/>
<path d="M10.2996 9.75151H6.56909V25.7945H10.2996V9.75151Z" stroke="white" stroke-width="2" stroke-miterlimit="10"/>
<path d="M82.7917 4.13701V37.1391" stroke="white" stroke-width="2" stroke-miterlimit="10"/>
<path d="M12.5698 5.67638V36.2133" stroke="white" stroke-width="2" stroke-miterlimit="10"/>
<path d="M74.6831 5.54327V36.6251" stroke="white" stroke-width="2" stroke-miterlimit="10"/>
<path d="M18.8953 6.34827L18.8627 26.8753" stroke="white" stroke-width="2" stroke-miterlimit="10"/>
<path d="M68.3577 6.34827L68.3345 27.5369" stroke="white" stroke-width="2" stroke-miterlimit="10"/>
<path d="M1.11646 3.30205C1.2241 3.44841 1.44468 3.59741 1.77026 3.74289C5.01722 5.24174 18.7656 6.89665 37.0695 7.20612" stroke="white" stroke-width="2" stroke-miterlimit="10"/>
<path d="M50.2444 7.18143C68.0286 6.7935 81.1779 5.04513 84.4054 3.6847C84.7178 3.55333 84.9348 3.42548 85.0592 3.30205" stroke="white" stroke-width="2" stroke-miterlimit="10"/>
<path d="M1.27954 1.19571C2.46892 2.79155 17.0176 4.75064 37.0694 5.09978" stroke="white" stroke-width="2" stroke-miterlimit="10"/>
<path d="M50.3184 5.07864C69.8804 4.65367 83.7497 2.56321 85.1332 1.1684" stroke="white" stroke-width="2" stroke-miterlimit="10"/>
</g>
</svg>
