<svg width="48" height="48" viewBox="0 0 48 48" fill="none" xmlns="http://www.w3.org/2000/svg">
<circle cx="24" cy="24" r="23" stroke="#EAF2EF" stroke-width="2"/>
<path d="M13.5384 15.8975C13.5384 15.2137 13.7777 14.6496 14.2563 14.2051C14.735 13.7607 15.3572 13.5385 16.123 13.5385C16.8751 13.5385 17.4837 13.7573 17.9486 14.1949C18.4273 14.6462 18.6666 15.2342 18.6666 15.959C18.6666 16.6154 18.4341 17.1624 17.9692 17.6C17.4905 18.0513 16.8615 18.2769 16.082 18.2769H16.0615C15.3093 18.2769 14.7008 18.0513 14.2358 17.6C13.7709 17.1487 13.5384 16.5812 13.5384 15.8975ZM13.8051 33.8462V20.1436H18.3589V33.8462H13.8051ZM20.882 33.8462H25.4358V26.1949C25.4358 25.7162 25.4905 25.347 25.5999 25.0872C25.7914 24.6222 26.082 24.2291 26.4717 23.9077C26.8615 23.5863 27.3503 23.4257 27.9384 23.4257C29.47 23.4257 30.2358 24.4581 30.2358 26.5231V33.8462H34.7897V25.9898C34.7897 23.9658 34.311 22.4308 33.3538 21.3846C32.3965 20.3385 31.1316 19.8154 29.5589 19.8154C27.7948 19.8154 26.4204 20.5744 25.4358 22.0923V22.1334H25.4153L25.4358 22.0923V20.1436H20.882C20.9093 20.5812 20.923 21.9419 20.923 24.2257C20.923 26.5094 20.9093 29.7162 20.882 33.8462Z" fill="#EAF2EF"/>
</svg>
