<svg width="26" height="24" viewBox="0 0 26 24" fill="none" xmlns="http://www.w3.org/2000/svg">
<path d="M4.4781 3.10259C4.87399 3.10259 5.25366 2.94532 5.5336 2.66539C5.81354 2.38545 5.9708 2.00578 5.9708 1.60989C5.9708 1.214 5.81354 0.834325 5.5336 0.55439C5.25366 0.274454 4.87399 0.117188 4.4781 0.117188H1.4927C1.09681 0.117188 0.717138 0.274454 0.437202 0.55439C0.157267 0.834325 0 1.214 0 1.60989V22.5077C0 22.9036 0.157267 23.2833 0.437202 23.5632C0.717138 23.8431 1.09681 24.0004 1.4927 24.0004H4.4781C4.87399 24.0004 5.25366 23.8431 5.5336 23.5632C5.81354 23.2833 5.9708 22.9036 5.9708 22.5077C5.9708 22.1118 5.81354 21.7321 5.5336 21.4522C5.25366 21.1723 4.87399 21.015 4.4781 21.015H2.9854V3.10259H4.4781ZM25.1072 11.193L20.8978 5.22222C20.6695 4.90042 20.3231 4.68208 19.9343 4.61495C19.5455 4.54782 19.1459 4.63735 18.823 4.86398C18.6615 4.9771 18.5241 5.12108 18.4186 5.28761C18.3131 5.45414 18.2416 5.63991 18.2083 5.83421C18.175 6.0285 18.1805 6.22747 18.2245 6.41963C18.2685 6.61178 18.3502 6.79332 18.4647 6.95376L21.0322 10.5661H8.9562C8.56032 10.5661 8.18064 10.7234 7.90071 11.0033C7.62077 11.2832 7.4635 11.6629 7.4635 12.0588C7.4635 12.4547 7.62077 12.8344 7.90071 13.1143C8.18064 13.3942 8.56032 13.5515 8.9562 13.5515H20.8978L18.2109 17.134C18.0933 17.2908 18.0078 17.4692 17.9591 17.6591C17.9105 17.849 17.8997 18.0466 17.9274 18.2407C17.9551 18.4348 18.0208 18.6214 18.1207 18.7901C18.2206 18.9588 18.3527 19.1061 18.5095 19.2238C18.7679 19.4175 19.0821 19.5223 19.4051 19.5223C19.6368 19.5223 19.8654 19.4683 20.0727 19.3647C20.2799 19.2611 20.4602 19.1106 20.5993 18.9252L25.0774 12.9544C25.2685 12.7019 25.3745 12.3952 25.3798 12.0786C25.3852 11.762 25.2897 11.4518 25.1072 11.193Z" fill="#002533"/>
</svg>
