<svg width="24" height="27" viewBox="0 0 24 27" fill="none" xmlns="http://www.w3.org/2000/svg">
<path d="M16.6455 15.6099C15.1688 16.5774 13.4417 17.0929 11.6763 17.0929C9.91086 17.0929 8.18381 16.5774 6.70713 15.6099C4.80297 16.5051 3.17525 17.8969 1.9952 19.6389C0.81515 21.3809 0.126382 23.4088 0.00134794 25.5092C-0.00439114 25.5982 0.00823707 25.6874 0.0384478 25.7713C0.0686585 25.8553 0.115806 25.9321 0.17696 25.997C0.238169 26.0612 0.311865 26.1122 0.393518 26.1469C0.475171 26.1816 0.563055 26.1992 0.651763 26.1986H22.7334C22.8221 26.1992 22.91 26.1816 22.9916 26.1469C23.0733 26.1122 23.147 26.0612 23.2082 25.997C23.2693 25.9321 23.3165 25.8553 23.3467 25.7713C23.3769 25.6874 23.3895 25.5982 23.3838 25.5092C23.2557 23.4054 22.5621 21.3752 21.3761 19.6328C20.1901 17.8904 18.5557 16.5006 16.6455 15.6099Z" fill="#002533"/>
<path d="M11.6764 15.61C15.987 15.61 19.4814 12.1156 19.4814 7.80498C19.4814 3.49441 15.987 0 11.6764 0C7.36587 0 3.87146 3.49441 3.87146 7.80498C3.87146 12.1156 7.36587 15.61 11.6764 15.61Z" fill="#002533"/>
</svg>
